<?xml version="1.0" ?><svg height="1000" version="1.1" width="1000" xmlns:svg="http://www.w3.org/2000/svg" xmlns:xlink="http://www.w3.org/1999/xlink"><defs/><g><path d="m 50.0,207.339 0,585.3221 439.02149,0 0,-585.3221 -439.02149,0 z m 460.97854,0 0,585.3221 439.02146,0 0,-585.3221 -439.02146,0 z m -369.68975,72.4341 91.40812,0 c 101.0188,0 182.93558,98.1966 182.93558,219.4515 0,121.2149 -81.91678,219.5702 -182.93558,219.5702 l -91.40812,0 0,-439.0217 z m 626.01433,1.4322 91.52743,0 0,439.0216 -91.52743,0 c -101.0188,0 -182.93556,-98.3556 -182.93556,-219.5705 0,-121.2146 81.91676,-219.4511 182.93556,-219.4511 z" id="path416" inkscape:connector-curvature="0" style="fill:#000000;fill-opacity:1;fill-rule:nonzero;stroke:none;display:inline"/></g></svg>