<?xml version="1.0" ?><svg height="1000" version="1.1" width="1000" xmlns:svg="http://www.w3.org/2000/svg" xmlns:xlink="http://www.w3.org/1999/xlink"><defs/><g><path d="m 50.0,50.0 0,242.3125 900,0 0,-242.3125 -900,0 z m 129.4062,371.5625 6.8126,158.5625 38.2812,0 65.8125,-115.9375 4.0625,115.9375 37.5625,0 87.375,-158.5625 -35.9687,0 -59.5313,109.75 -4.1875,-109.75 -40.3125,0 -61.9375,110.9687 -1.625,-110.9687 -36.3438,0 z m 255.0313,0 -37.8125,158.5625 37.2188,0 37.6874,-158.5625 -37.0937,0 z m 72.2188,0 -37.8125,158.5625 63.6875,0 c 16.0167,0 27.9039,-0.7887 35.625,-2.375 13.6347,-2.8846 24.7193,-7.3481 33.3437,-13.4063 11.2529,-7.7868 20.6074,-18.3026 28,-31.5 7.4743,-13.2683 11.2185,-28.4398 11.2188,-45.5312 -3e-4,-7.9332 -0.9859,-15.2095 -2.875,-21.8438 -1.8892,-6.7073 -4.5931,-12.6295 -8.125,-17.75 -3.4498,-5.1209 -7.5603,-9.4877 -12.4063,-13.0937 -4.7642,-3.6773 -10.1174,-6.5129 -16.0312,-8.5313 -5.8318,-2.0192 -12.4944,-3.3821 -19.9688,-4.0312 -3.7785,-0.36 -12.4162,-0.4997 -25.9687,-0.5 l -48.6875,0 z m 181.5937,0 -37.6875,158.5625 141.0625,0 6.4063,-26.5 -105.0938,0 11.3438,-43.0625 93.5,0 6.3125,-26.5 -93.5313,0 8.625,-36.0313 96.7188,0 6.2812,-26.4687 -133.9375,0 z m -150.7812,26.1562 21.5625,0 c 10.924,3e-4 18.51,0.6715 22.7812,1.9688 6.0781,1.8752 11.1739,5.6152 15.2813,11.3125 4.1886,5.6253 6.2811,14.0622 6.2812,25.3125 -10e-5,13.1961 -2.521,24.6703 -7.5312,34.4062 -5.0107,9.7364 -11.1587,17.5329 -18.4688,23.375 -5.0928,4.0378 -10.7145,6.8298 -16.875,8.3438 -6.0781,1.4427 -15.9278,2.1562 -29.5625,2.1562 l -18.875,0 25.4063,-106.875 z M 1050,-8239.9502 l 0,242.3125 900,0 0,-242.3125 -900,0 z" id="rect3270-3-2" inkscape:connector-curvature="0" style="fill:#000000;fill-opacity:1;fill-rule:evenodd;stroke:none;display:inline"/></g></svg>